<svg version="1.1" xmlns="http://www.w3.org/2000/svg" xmlns:xlink="http://www.w3.org/1999/xlink" width="179.23768" height="133.29916" viewBox="0,0,179.23768,133.29916"><g transform="translate(-150.38116,-113.35042)"><g data-paper-data="{&quot;isPaintingLayer&quot;:true}" fill-rule="nonzero" stroke-linecap="butt" stroke-linejoin="miter" stroke-miterlimit="10" stroke-dasharray="" stroke-dashoffset="0" style="mix-blend-mode: normal"><path d="M190,180c0,-27.61424 22.38576,-50 50,-50c27.61424,0 50,22.38576 50,50c0,27.61424 -22.38576,50 -50,50c-27.61424,0 -50,-22.38576 -50,-50z" fill="#000000" stroke="none" stroke-width="0"/><path d="M182.5,180c0,-31.75637 25.74363,-57.5 57.5,-57.5c31.75637,0 57.5,25.74363 57.5,57.5c0,31.75637 -25.74363,57.5 -57.5,57.5c-31.75637,0 -57.5,-25.74363 -57.5,-57.5z" fill="none" stroke="#000000" stroke-width="2"/><path d="M206.19668,194.72839c-0.52573,-1.38983 -1.03882,-2.74625 -1.37683,-3.63981c-1.27354,-3.36674 0.88221,-6.15899 4.24895,-7.43252c7.72138,-2.92076 40.99162,-15.50589 55.68912,-21.06551c3.88417,-1.46927 7.75974,-0.71783 9.229,3.16635c1.69814,4.48923 0.94821,9.07246 -3.54102,10.7706c-14.82446,5.60764 -49.81059,18.84184 -57.14505,21.61624c-2.64355,0.99998 -7.10418,-3.41534 -7.10418,-3.41534z" fill="#ffe300" stroke="#fffad6" stroke-width="2"/><path d="M179.2946,246.64958l-28.91344,-76.43605l150.32423,-56.8631l28.91344,76.43605z" fill="none" stroke="none" stroke-width="0"/></g></g></svg>