<svg version="1.1" xmlns="http://www.w3.org/2000/svg" xmlns:xlink="http://www.w3.org/1999/xlink" width="132.31149" height="117" viewBox="0,0,132.31149,117"><g transform="translate(-173.84426,-121.5)"><g data-paper-data="{&quot;isPaintingLayer&quot;:true}" fill-rule="nonzero" stroke-linecap="butt" stroke-linejoin="miter" stroke-miterlimit="10" stroke-dasharray="" stroke-dashoffset="0" style="mix-blend-mode: normal"><path d="M190,180c0,-27.61424 22.38576,-50 50,-50c27.61424,0 50,22.38576 50,50c0,27.61424 -22.38576,50 -50,50c-27.61424,0 -50,-22.38576 -50,-50z" fill="#000000" stroke="none" stroke-width="0"/><path d="M182.5,180c0,-31.75637 25.74363,-57.5 57.5,-57.5c31.75637,0 57.5,25.74363 57.5,57.5c0,31.75637 -25.74363,57.5 -57.5,57.5c-31.75637,0 -57.5,-25.74363 -57.5,-57.5z" fill="none" stroke="#000000" stroke-width="2"/><text transform="translate(202.62001,167.23125) scale(0.5,0.5)" font-size="40" xml:space="preserve" fill="#ffffff" fill-rule="nonzero" stroke="none" stroke-width="1" stroke-linecap="butt" stroke-linejoin="miter" stroke-miterlimit="10" stroke-dasharray="" stroke-dashoffset="0" font-family="Sans Serif" font-weight="normal" text-anchor="start" style="mix-blend-mode: normal"><tspan x="0" dy="0">Click to </tspan><tspan x="0" dy="46.150000000000006px"> </tspan></text><text transform="translate(200.46002,185.76875) scale(0.5,0.5)" font-size="40" xml:space="preserve" fill="#ffffff" fill-rule="nonzero" stroke="none" stroke-width="1" stroke-linecap="butt" stroke-linejoin="miter" stroke-miterlimit="10" stroke-dasharray="" stroke-dashoffset="0" font-family="Sans Serif" font-weight="normal" text-anchor="start" style="mix-blend-mode: normal"><tspan x="0" dy="0">Activate</tspan></text><path d="M209.68167,205.27206c0,-1.22329 0,-2.41718 0,-3.20367c0,-2.96332 2.47321,-4.48544 5.43652,-4.48544c6.79616,0 36.07976,0 49.01612,0c3.41875,0 6.18405,1.70743 6.18405,5.12618c0,3.9513 -1.91238,7.26195 -5.86369,7.26195c-13.0481,0 -43.84199,0 -50.29759,0c-2.32679,0 -4.47542,-4.69901 -4.47542,-4.69901z" fill="#ffe300" stroke="#fffad6" stroke-width="2"/><path d="M173.84426,213.63851v-67.27703h132.31149v67.27703z" fill="none" stroke="none" stroke-width="0"/></g></g></svg>