<svg version="1.1" xmlns="http://www.w3.org/2000/svg" xmlns:xlink="http://www.w3.org/1999/xlink" width="117" height="117" viewBox="0,0,117,117"><g transform="translate(-181.5,-121.5)"><g data-paper-data="{&quot;isPaintingLayer&quot;:true}" fill-rule="nonzero" stroke-linecap="butt" stroke-linejoin="miter" stroke-miterlimit="10" stroke-dasharray="" stroke-dashoffset="0" style="mix-blend-mode: normal"><path d="M218.50001,180c0,-11.87412 9.62588,-21.5 21.5,-21.5c11.87412,0 21.5,9.62588 21.5,21.5c0,11.87412 -9.62588,21.5 -21.5,21.5c-11.87412,0 -21.5,-9.62588 -21.5,-21.5z" fill="#ffffff" stroke="#ffffff" stroke-width="2"/><path d="M190,180c0,-27.61424 22.38576,-50 50,-50c27.61424,0 50,22.38576 50,50c0,27.61424 -22.38576,50 -50,50c-27.61424,0 -50,-22.38576 -50,-50z" fill="#000000" stroke="none" stroke-width="0"/><path d="M182.5,180c0,-31.75637 25.74363,-57.5 57.5,-57.5c31.75637,0 57.5,25.74363 57.5,57.5c0,31.75637 -25.74363,57.5 -57.5,57.5c-31.75637,0 -57.5,-25.74363 -57.5,-57.5z" fill="none" stroke="#000000" stroke-width="2"/></g></g></svg>